<svg width="32" height="32" viewBox="0 0 32 32" fill="none" xmlns="http://www.w3.org/2000/svg">
<rect width="32" height="32" rx="16" fill="#FF445A"/>
<path d="M18.3333 13.6667C19.2615 13.6667 20.1517 14.0355 20.8081 14.6919C21.4645 15.3483 21.8333 16.2385 21.8333 17.1667V21.2501H19.4999V17.1667C19.4999 16.8573 19.377 16.5606 19.1582 16.3418C18.9394 16.123 18.6427 16.0001 18.3333 16.0001C18.0238 16.0001 17.7271 16.123 17.5083 16.3418C17.2895 16.5606 17.1666 16.8573 17.1666 17.1667V21.2501H14.8333V17.1667C14.8333 16.2385 15.202 15.3483 15.8584 14.6919C16.5148 14.0355 17.405 13.6667 18.3333 13.6667Z" fill="white"/>
<path d="M12.5001 14.25H10.1667V21.25H12.5001V14.25Z" fill="white"/>
<path d="M11.3334 12.5001C11.9777 12.5001 12.5001 11.9777 12.5001 11.3334C12.5001 10.6891 11.9777 10.1667 11.3334 10.1667C10.6891 10.1667 10.1667 10.6891 10.1667 11.3334C10.1667 11.9777 10.6891 12.5001 11.3334 12.5001Z" fill="white"/>
</svg>
