<svg width="32" height="32" viewBox="0 0 32 32" fill="none" xmlns="http://www.w3.org/2000/svg">
<rect width="32" height="32" rx="16" fill="#FF445A"/>
<path d="M18.9167 10.1667H13.0834C11.4726 10.1667 10.1667 11.4726 10.1667 13.0834V18.9167C10.1667 20.5276 11.4726 21.8334 13.0834 21.8334H18.9167C20.5276 21.8334 21.8334 20.5276 21.8334 18.9167V13.0834C21.8334 11.4726 20.5276 10.1667 18.9167 10.1667Z" fill="white"/>
<path d="M18.3333 15.6324C18.4053 16.1179 18.3224 16.6137 18.0964 17.0494C17.8703 17.485 17.5127 17.8383 17.0743 18.0589C16.6359 18.2796 16.1391 18.3564 15.6545 18.2784C15.17 18.2004 14.7224 17.9716 14.3753 17.6246C14.0283 17.2776 13.7995 16.8299 13.7215 16.3454C13.6436 15.8608 13.7204 15.364 13.941 14.9256C14.1617 14.4873 14.5149 14.1296 14.9506 13.9036C15.3862 13.6775 15.882 13.5946 16.3675 13.6666C16.8627 13.74 17.3212 13.9708 17.6751 14.3248C18.0291 14.6788 18.2599 15.1372 18.3333 15.6324Z" stroke="#FF445A" stroke-linecap="round" stroke-linejoin="round"/>
<path d="M19.2083 12.7917H19.2141" stroke="#FF445A" stroke-width="2" stroke-linecap="round" stroke-linejoin="round"/>
</svg>
