<svg width="32" height="32" viewBox="0 0 32 32" fill="none" xmlns="http://www.w3.org/2000/svg">
<rect width="32" height="32" rx="16" fill="#FF445A"/>
<path d="M22.4166 10.75C21.858 11.144 21.2395 11.4454 20.5849 11.6425C20.2336 11.2386 19.7667 10.9522 19.2474 10.8223C18.728 10.6923 18.1813 10.725 17.6811 10.9159C17.181 11.1068 16.7515 11.4467 16.4508 11.8897C16.1501 12.3326 15.9927 12.8572 15.9999 13.3925V13.9758C14.9748 14.0024 13.959 13.7751 13.043 13.314C12.127 12.853 11.3393 12.1725 10.7499 11.3333C10.7499 11.3333 8.41659 16.5833 13.6666 18.9167C12.4652 19.7322 11.0341 20.141 9.58325 20.0833C14.8333 23 21.2499 20.0833 21.2499 13.375C21.2494 13.2125 21.2338 13.0504 21.2033 12.8908C21.7986 12.3037 22.2187 11.5624 22.4166 10.75Z" fill="white"/>
</svg>
