<svg width="76" height="76" viewBox="0 0 76 76" fill="none" xmlns="http://www.w3.org/2000/svg">
<rect x="3" y="3" width="70" height="70" rx="35" fill="#FFA9D0"/>
<rect x="3" y="3" width="70" height="70" rx="35" stroke="#FFE3F0" stroke-width="6"/>
<path d="M33 37L37 28C37.7956 28 38.5587 28.3161 39.1213 28.8787C39.6839 29.4413 40 30.2044 40 31V35H45.66C45.9499 34.9967 46.2371 35.0565 46.5016 35.1752C46.7661 35.2939 47.0016 35.4687 47.1919 35.6875C47.3821 35.9063 47.5225 36.1638 47.6033 36.4423C47.6842 36.7207 47.7035 37.0134 47.66 37.3L46.28 46.3C46.2077 46.7769 45.9654 47.2116 45.5979 47.524C45.2304 47.8364 44.7623 48.0055 44.28 48H33M33 37V48M33 37H30C29.4696 37 28.9609 37.2107 28.5858 37.5858C28.2107 37.9609 28 38.4696 28 39V46C28 46.5304 28.2107 47.0391 28.5858 47.4142C28.9609 47.7893 29.4696 48 30 48H33" stroke="white" stroke-width="2" stroke-linecap="round" stroke-linejoin="round"/>
</svg>
